<svg viewBox="0 0 512 512" xmlns="http://www.w3.org/2000/svg">
  <!-- Background gradient -->
  <defs>
    <linearGradient id="bg" x1="0%" y1="0%" x2="100%" y2="100%">
      <stop offset="0%" style="stop-color:#3b82f6;stop-opacity:1" />
      <stop offset="100%" style="stop-color:#1d4ed8;stop-opacity:1" />
    </linearGradient>
  </defs>
  
  <!-- Background -->
  <rect width="512" height="512" rx="64" fill="url(#bg)"/>
  
  <!-- Chat bubble -->
  <path d="M96 192 C96 144 144 96 192 96 L352 96 C400 96 448 144 448 192 L448 288 C448 336 400 384 352 384 L224 384 L192 448 L192 384 C144 384 96 336 96 288 Z" fill="#ffffff"/>
  
  <!-- AI text -->
  <text x="256" y="270" text-anchor="middle" font-family="system-ui, -apple-system, sans-serif" font-size="64" font-weight="bold" fill="#3b82f6">AI</text>
  
  <!-- Circuit pattern -->
  <g stroke="#e5e7eb" stroke-width="2" fill="none" opacity="0.6">
    <circle cx="320" cy="240" r="8"/>
    <circle cx="320" cy="280" r="8"/>
    <circle cx="192" cy="240" r="8"/>
    <circle cx="192" cy="280" r="8"/>
    <line x1="200" y1="240" x2="312" y2="240"/>
    <line x1="200" y1="280" x2="312" y2="280"/>
  </g>
  
  <!-- Sparkle effects -->
  <g fill="#fbbf24" opacity="0.9">
    <polygon points="120,120 126,132 138,138 126,144 120,156 114,144 102,138 114,132" />
    <polygon points="392,140 397,150 407,155 397,160 392,170 387,160 377,155 387,150" />
    <polygon points="360,360 365,370 375,375 365,380 360,390 355,380 345,375 355,370" />
  </g>
</svg>